# xmcd
#
# Track frame offsets:
#	150
#	14913
#	32310
#	44695
#	57025
#	69388
#	91435
#	103608
#	118707
#	131384
#	145605
#	159361
#	181894
#
# Disc length: 2607 seconds
#
# Revision: 16
# Processed by: cddbd v1.5.2PL0 Copyright (c) Steve Scherf et al.
# Submitted via: Jack! The Knife 20 Magnifico
#
DISCID=a80a2d0d
DTITLE=Venom - Possessed
DYEAR=1985
DGENRE=Black Metal
TTITLE0=Powerdrive
TTITLE1=Flytrap
TTITLE2=Satanachist
TTITLE3=Burn This Place (To the Ground)
TTITLE4=Harmony Dies
TTITLE5=Possessed
TTITLE6=Hellchild
TTITLE7=Moonshine
TTITLE8=Wing And A Prayer
TTITLE9=Suffer Not the Children
TTITLE10=Voyeur
TTITLE11=Mystique
TTITLE12=Too Loud (For the Crowd)
EXTD=Keith Nichol and Venom
EXTT0=Cronos, Mantas, Abaddon
EXTT1=Cronos, Mantas, Abaddon
EXTT2=Cronos, Mantas, Abaddon
EXTT3=Cronos, Mantas, Abaddon
EXTT4=Cronos, Mantas, Abaddon
EXTT5=Cronos, Mantas, Abaddon
EXTT6=Cronos, Mantas, Abaddon
EXTT7=Cronos, Mantas, Abaddon
EXTT8=Cronos, Mantas, Abaddon
EXTT9=Cronos, Mantas, Abaddon
EXTT10=Cronos, Mantas, Abaddon
EXTT11=Cronos, Mantas, Abaddon
EXTT12=Cronos, Mantas, Abaddon
PLAYORDER=
